# xmcd
#
# Track frame offsets:
#	150
#	23323
#	44253
#	66317
#	99059
#	126291
#	149208
#	170461
#	195203
#
# Disc length: 3030 seconds
#
# Revision: 0
# Processed by: cddbd v1.5.1PL2 Copyright (c) Steve Scherf et al.
# Submitted via: EasyCDDAExtractor 8.2.3.1
#
DISCID=720bd409
DTITLE=Paul Barrere and Fred Tackett - River Street JAzz Cafe - Wilkes Barre, PA
DTITLE=12-14-02 disc 1
DYEAR=2002
DGENRE=Blues
TTITLE0=Two Trains ->
TTITLE1=Rocket In My Pocket
TTITLE2=Rad Gumbo
TTITLE3=Cajun Rage
TTITLE4=Sailion' Shoes
TTITLE5=Gold Tooth Woman
TTITLE6=Ain't Had Enough Fun
TTITLE7=Hate To Love Your Lovin'
TTITLE8=Down On The Farm
EXTD=
EXTT0=
EXTT1=
EXTT2=
EXTT3=
EXTT4=
EXTT5=
EXTT6=
EXTT7=
EXTT8=
PLAYORDER=
